<?xml version="1.0" encoding="utf-8"?>
<!-- Generator: Adobe Illustrator 28.4.1, SVG Export Plug-In . SVG Version: 6.00 Build 0)  -->
<svg version="1.1" id="Capa_1" xmlns="http://www.w3.org/2000/svg" xmlns:xlink="http://www.w3.org/1999/xlink" x="0px" y="0px"
	 viewBox="0 0 800 800" style="enable-background:new 0 0 800 800;" xml:space="preserve">
<style type="text/css">
	.st0{fill:none;stroke:#F90000;stroke-width:50;stroke-miterlimit:133.3333;}
	.st1{fill:none;stroke:#FC0700;stroke-width:50;stroke-linecap:round;stroke-linejoin:round;stroke-miterlimit:133.3333;}
</style>
<path class="st0" d="M100,347.2c0-106.6,0-159.9,12.6-177.8c12.6-17.9,62.7-35.1,162.9-69.4l19.1-6.5C346.8,75.6,373,66.7,400,66.7
	c27,0,53.2,8.9,105.4,26.8l19.1,6.5c100.2,34.3,150.3,51.5,162.9,69.4C700,187.3,700,240.6,700,347.2c0,16.1,0,33.6,0,52.5
	c0,187.9-141.3,279.1-230,317.9c-24,10.5-36.1,15.8-70,15.8s-46-5.3-70-15.8c-88.7-38.7-230-129.9-230-317.9
	C100,380.8,100,363.3,100,347.2z"/>
<path class="st1" d="M316.7,413.3l47.6,53.3l119-133.3"/>
</svg>
